<svg xmlns="http://www.w3.org/2000/svg" viewBox="0 0 64 64" width="64" height="64">
  <defs>
    <linearGradient id="goldGrad" x1="0%" y1="0%" x2="100%" y2="100%">
      <stop offset="0%" stop-color="#fff0bd"/>
      <stop offset="45%" stop-color="#e9bc5c"/>
      <stop offset="100%" stop-color="#996b1b"/>
    </linearGradient>
    <radialGradient id="glow" cx="50%" cy="50%" r="50%">
      <stop offset="0%" stop-color="rgba(233,188,92,0.3)"/>
      <stop offset="100%" stop-color="rgba(5,5,4,0)"/>
    </radialGradient>
  </defs>
  <rect width="64" height="64" rx="14" fill="#050504"/>
  <circle cx="32" cy="32" r="28" fill="none" stroke="url(#goldGrad)" stroke-width="1.5" opacity="0.6"/>
  <circle cx="32" cy="32" r="22" fill="url(#glow)"/>
  <!-- Stylized Majestic Arabian Horse Silhouette -->
  <path d="M22 46 C24 38 27 34 30 30 C31 27 30 22 28 19 C31 19 35 22 36 24 C37 20 40 16 43 14 C44 18 43 21 42 23 C45 22 48 24 49 27 C50 30 46 32 44 33 C40 35 37 38 36 46 Z" fill="url(#goldGrad)"/>
  <circle cx="41" cy="22" r="1.2" fill="#050504"/>
</svg>
